<svg xmlns="http://www.w3.org/2000/svg" 
    xmlns:xlink="http://www.w3.org/1999/xlink" width="840" height="515.91">
    <rect width="840" height="515.91" rx="5" ry="5" class="a"/>
    <svg y="0%" x="0%">
        <circle cx="20" cy="20" r="6" fill="#ff5f58"/>
        <circle cx="40" cy="20" r="6" fill="#ffbd2e"/>
        <circle cx="60" cy="20" r="6" fill="#18c132"/>
    </svg>
    <svg height="455.91" viewBox="0 0 80 45.591" width="800" x="15" 
        xmlns="http://www.w3.org/2000/svg" 
        xmlns:xlink="http://www.w3.org/1999/xlink" y="30">
        <style>.a{fill:#282d35}.g{fill:#b9c0cb}.k{fill:#a8cc8c;font-weight:700}</style>
        <g font-size="1.67" font-family="Monaco,Consolas,Menlo,'Bitstream Vera Sans Mono','Powerline Symbols',monospace">
            <defs>
                <symbol id="a">
                    <path fill="transparent" d="M0 0h80v22H0z"/>
                </symbol>
            </defs>
            <path class="a" d="M0 0h80v45.591H0z"/>
            <svg width="80">
                <svg>
                    <use xlink:href="#a"/>
                    <text y="6.012" fill="#66c2cd" font-weight="700">~</text>
                    <text x="2.004" y="6.012" fill="#b9c0cb" font-weight="700">via</text>
                    <text x="6.012" y="6.012" class="k">⬢</text>
                    <text x="8.016" y="6.012" class="k">v11.13.0</text>
                    <text y="8.183" class="k">❯</text>
                    <text x="2.004" y="8.183" fill="#a8cc8c">micropy</text>
                    <text y="10.354" class="g">Usage:</text>
                    <text x="7.014" y="10.354" class="g">micropy</text>
                    <text x="15.03" y="10.354" class="g">[OPTIONS]</text>
                    <text x="25.05" y="10.354" class="g">COMMAND</text>
                    <text x="33.066" y="10.354" class="g">[ARGS]...</text>
                    <text y="14.696" class="g">Options:</text>
                    <text x="2.004" y="16.867" class="g">--help</text>
                    <text x="10.02" y="16.867" class="g">Show</text>
                    <text x="15.03" y="16.867" class="g">this</text>
                    <text x="20.04" y="16.867" class="g">message</text>
                    <text x="28.056" y="16.867" class="g">and</text>
                    <text x="32.064" y="16.867" class="g">exit.</text>
                    <text y="21.209" class="g">Commands:</text>
                    <text x="2.004" y="23.38" class="g">init</text>
                    <text x="9.018" y="23.38" class="g">Create</text>
                    <text x="16.032" y="23.38" class="g">new</text>
                    <text x="20.04" y="23.38" class="g">Micropython</text>
                    <text x="32.064" y="23.38" class="g">Project</text>
                    <text x="2.004" y="25.551" class="g">stubs</text>
                    <text x="9.018" y="25.551" class="g">Manage</text>
                    <text x="16.032" y="25.551" class="g">Stubs</text>
                </svg>
            </svg>
        </g>
    </svg>
</svg>