<svg xmlns="http://www.w3.org/2000/svg" xmlns:xlink="http://www.w3.org/1999/xlink" width="840" height="602.75"><rect width="840" height="602.75" rx="5" ry="5" class="a"/><svg y="0%" x="0%"><circle cx="20" cy="20" r="6" fill="#ff5f58"/><circle cx="40" cy="20" r="6" fill="#ffbd2e"/><circle cx="60" cy="20" r="6" fill="#18c132"/></svg><svg height="542.75" viewBox="0 0 80 54.275" width="800" x="15" xmlns="http://www.w3.org/2000/svg" xmlns:xlink="http://www.w3.org/1999/xlink" y="50"><style>@keyframes r{0%{transform:translateX(0)}1.2%{transform:translateX(-160px)}3.7%{transform:translateX(-400px)}10.3%{transform:translateX(-480px)}10.7%{transform:translateX(-560px)}11.6%{transform:translateX(-640px)}13.1%{transform:translateX(-720px)}13.8%{transform:translateX(-800px)}15.4%{transform:translateX(-880px)}16.4%{transform:translateX(-960px)}18.2%{transform:translateX(-1040px)}21.4%{transform:translateX(-1120px)}22.7%{transform:translateX(-1200px)}23.9%{transform:translateX(-1280px)}24.7%{transform:translateX(-1360px)}25.5%{transform:translateX(-1440px)}27.5%{transform:translateX(-1520px)}28.5%{transform:translateX(-1600px)}28.9%{transform:translateX(-1680px)}31.3%{transform:translateX(-1760px)}32.5%{transform:translateX(-1840px)}33%{transform:translateX(-1920px)}34.3%{transform:translateX(-2000px)}34.8%{transform:translateX(-2080px)}35.3%{transform:translateX(-2160px)}37.8%{transform:translateX(-2240px)}41.5%{transform:translateX(-2560px)}43.3%{transform:translateX(-2640px)}43.4%{transform:translateX(-2720px)}43.5%{transform:translateX(-2880px)}52.4%{transform:translateX(-2960px)}54.8%{transform:translateX(-3040px)}56.7%{transform:translateX(-3120px)}60.7%{transform:translateX(-3200px)}66.4%{transform:translateX(-3920px)}66.6%{transform:translateX(-4080px)}69.1%{transform:translateX(-4320px)}75.5%{transform:translateX(-4400px)}77.3%{transform:translateX(-4480px)}77.9%{transform:translateX(-4560px)}79.8%{transform:translateX(-4640px)}84.4%{transform:translateX(-4880px)}84.5%{transform:translateX(-5280px)}87%{transform:translateX(-5520px)}to{transform:translateX(-5600px)}}.a{fill:#282d35}.f{fill:#66c2cd;font-weight:700}.g{fill:#b9c0cb}.g,.h{font-weight:700}.h,.i{fill:#a8cc8c}.j{fill:#b9c0cb}.k{fill:#5f87af}.l{fill:#ffaf00;font-weight:700}.m{fill:#66c2cd}.n{fill:#dbab79}.p{fill:#71bef2;font-weight:700}</style><g font-size="1.67" font-family="Monaco,Consolas,Menlo,'Bitstream Vera Sans Mono','Powerline Symbols',monospace"><defs><symbol id="1"><text y="1.67" class="f">~</text><text x="2.004" y="1.67" class="g">via</text><text x="6.012" y="1.67" class="h">⬢</text><text x="8.016" y="1.67" class="h">v11.13.0</text></symbol><symbol id="2"><text y="1.67" class="h">❯</text></symbol><symbol id="3"><text y="1.67" class="h">❯</text><text x="2.004" y="1.67" class="i">micropy</text></symbol><symbol id="4"><text y="1.67" class="h">❯</text><text x="2.004" y="1.67" class="i">micropy</text><text x="10.02" y="1.67" class="j">init</text></symbol><symbol id="5"><text y="1.67" class="h">❯</text><text x="2.004" y="1.67" class="i">micropy</text><text x="10.02" y="1.67" class="j">init</text><text x="15.03" y="1.67" class="j">NewProject</text></symbol><symbol id="6"><text y="1.67" class="h">MicroPy</text><text x="8.016" y="1.67" class="i">‣</text><text x="10.02" y="1.67" class="j">Creating</text><text x="19.038" y="1.67" class="j">New</text><text x="23.046" y="1.67" class="j">Project...</text></symbol><symbol id="7"><text y="1.67" class="k">?</text><text x="2.004" y="1.67" class="g">Which</text><text x="8.016" y="1.67" class="g">stubs</text><text x="14.028" y="1.67" class="g">would</text><text x="20.04" y="1.67" class="g">you</text><text x="24.048" y="1.67" class="g">like</text><text x="29.058" y="1.67" class="g">to</text><text x="32.064" y="1.67" class="g">use?</text><text x="38.076" y="1.67" class="j">(Use</text><text x="43.086" y="1.67" class="j">arrow</text><text x="49.098" y="1.67" class="j">keys</text><text x="54.108" y="1.67" class="j">to</text><text x="57.114" y="1.67" class="j">move,</text><text x="63.126" y="1.67" class="j">&lt;space&gt;</text><text x="71.142" y="1.67" class="j">to</text><text x="74.148" y="1.67" class="j">select</text></symbol><symbol id="8"><text y="1.67" class="j">,</text><text x="2.004" y="1.67" class="j">&lt;a&gt;</text><text x="6.012" y="1.67" class="j">to</text><text x="9.018" y="1.67" class="j">toggle,</text><text x="17.034" y="1.67" class="j">&lt;i&gt;</text><text x="21.042" y="1.67" class="j">to</text><text x="24.048" y="1.67" class="j">invert)</text></symbol><symbol id="9"><text x="1.002" y="1.67" class="j">»</text><text x="3.006" y="1.67" class="j">○</text><text x="5.01" y="1.67" class="j">esp8266@v1.10-8-g8b7039d7d</text><text x="32.064" y="1.67" class="j">on</text><text x="35.07" y="1.67" class="j">2019-01-26</text></symbol><symbol id="10"><text x="3.006" y="1.67" class="j">○</text><text x="5.01" y="1.67" class="j">esp8266@v1.9.4-8-ga9a3caad0</text><text x="33.066" y="1.67" class="j">on</text><text x="36.072" y="1.67" class="j">2018-05-11</text></symbol><symbol id="11"><text x="3.006" y="1.67" class="j">○</text><text x="5.01" y="1.67" class="j">esp32_LoBo@ESP32_LoBo_v3.2.24</text><text x="35.07" y="1.67" class="j">on</text><text x="38.076" y="1.67" class="j">2018-09-06</text></symbol><symbol id="12"><text x="3.006" y="1.67" class="j">○</text><text x="5.01" y="1.67" class="j">esp8266@v1.11-8-g48dcbbe60</text><text x="32.064" y="1.67" class="j">on</text><text x="35.07" y="1.67" class="j">2019-05-29</text></symbol><symbol id="13"><text x="3.006" y="1.67" class="j">○</text><text x="5.01" y="1.67" class="j">esp32@&apos;v1.10-247-g0fb15fc3f</text><text x="33.066" y="1.67" class="j">on</text><text x="36.072" y="1.67" class="j">2019-03-29</text></symbol><symbol id="14"><text x="3.006" y="1.67" class="j">○</text><text x="5.01" y="1.67" class="j">esp8266@v1.9.3-8-g63826ac5c</text><text x="33.066" y="1.67" class="j">on</text><text x="36.072" y="1.67" class="j">2017-11-01</text></symbol><symbol id="15"><text x="3.006" y="1.67" class="j">○</text><text x="5.01" y="1.67" class="j">esp8266@v1.10-8-g8b7039d7d</text><text x="32.064" y="1.67" class="j">on</text><text x="35.07" y="1.67" class="j">2019-01-26</text></symbol><symbol id="16"><text y="1.67" class="k">?</text><text x="2.004" y="1.67" class="g">Which</text><text x="8.016" y="1.67" class="g">stubs</text><text x="14.028" y="1.67" class="g">would</text><text x="20.04" y="1.67" class="g">you</text><text x="24.048" y="1.67" class="g">like</text><text x="29.058" y="1.67" class="g">to</text><text x="32.064" y="1.67" class="g">use?</text><text x="38.076" y="1.67" class="l">[esp8266@v1.11-8-g48dcbbe60</text><text x="66.132" y="1.67" class="l">on</text><text x="69.138" y="1.67" class="l">2019-05-29]</text></symbol><symbol id="17"><text y="1.67" class="h">MicroPy</text><text x="8.016" y="1.67" class="i">‣</text><text x="10.02" y="1.67" class="m">NewProject</text><text x="21.042" y="1.67" class="m">‣</text><text x="23.046" y="1.67" class="j">Initiating</text><text x="34.068" y="1.67" class="n">NewProject</text></symbol><symbol id="18"><text y="1.67" class="h">MicroPy</text><text x="8.016" y="1.67" class="i">‣</text><text x="10.02" y="1.67" class="m">NewProject</text><text x="21.042" y="1.67" class="m">‣</text><text x="23.046" y="1.67" class="j">Rendering</text><text x="33.066" y="1.67" class="j">Project</text><text x="41.082" y="1.67" class="j">files...</text></symbol><symbol id="19"><text y="1.67" class="h">MicroPy</text><text x="8.016" y="1.67" class="i">‣</text><text x="10.02" y="1.67" class="m">NewProject</text><text x="21.042" y="1.67" class="m">‣</text><text x="23.046" y="1.67" class="j">Populating</text><text x="34.068" y="1.67" class="j">Stub</text><text x="39.078" y="1.67" class="j">info...</text></symbol><symbol id="20"><text y="1.67" class="h">MicroPy</text><text x="8.016" y="1.67" class="i">‣</text><text x="10.02" y="1.67" class="m">NewProject</text><text x="21.042" y="1.67" class="m">‣</text><text x="23.046" y="1.67" class="i">✔</text><text x="25.05" y="1.67" class="i">Stubs</text><text x="31.062" y="1.67" class="i">Injected!</text></symbol><symbol id="21"><text y="1.67" class="h">MicroPy</text><text x="8.016" y="1.67" class="i">‣</text><text x="10.02" y="1.67" class="m">NewProject</text><text x="21.042" y="1.67" class="m">‣</text><text x="23.046" y="1.67" class="i">✔</text><text x="25.05" y="1.67" class="i">Project</text><text x="33.066" y="1.67" class="i">Created!</text></symbol><symbol id="22"><text y="1.67" class="h">MicroPy</text><text x="8.016" y="1.67" class="i">‣</text><text x="10.02" y="1.67" class="j">Created</text><text x="18.036" y="1.67" class="n">NewProject</text><text x="29.058" y="1.67" class="j">at</text><text x="32.064" y="1.67" class="i">./NewProject</text></symbol><symbol id="23"><text y="1.67" class="f">~</text><text x="2.004" y="1.67" class="g">via</text><text x="6.012" y="1.67" class="h">⬢</text><text x="8.016" y="1.67" class="h">v11.13.0</text><text x="17.034" y="1.67" class="g">took</text><text x="22.044" y="1.67" fill="#dbab79" font-weight="700">3s</text></symbol><symbol id="24"><text y="1.67" class="h">❯</text><text x="2.004" y="1.67" class="i">tree</text></symbol><symbol id="25"><text y="1.67" class="p">NewProject</text></symbol><symbol id="26"><text y="1.67" class="j">├──</text><text x="4.008" y="1.67" class="j">.pylintrc</text></symbol><symbol id="27"><text y="1.67" class="j">├──</text><text x="4.008" y="1.67" class="j">pymakr.conf</text></symbol><symbol id="28"><text y="1.67" class="j">├──</text><text x="4.008" y="1.67" class="p">src</text></symbol><symbol id="29"><text y="1.67" class="j">│</text><text x="4.008" y="1.67" class="j">├──</text><text x="8.016" y="1.67" class="j">boot.py</text></symbol><symbol id="30"><text y="1.67" class="j">│</text><text x="4.008" y="1.67" class="j">└──</text><text x="8.016" y="1.67" class="j">main.py</text></symbol><symbol id="31"><text y="1.67" class="j">└──</text><text x="4.008" y="1.67" class="p">.vscode</text></symbol><symbol id="32"><text x="4.008" y="1.67" class="j">└──</text><text x="8.016" y="1.67" class="j">settings.json</text></symbol><symbol id="33"><text y="1.67" class="j">2</text><text x="2.004" y="1.67" class="j">directories,</text><text x="15.03" y="1.67" class="j">5</text><text x="17.034" y="1.67" class="j">files</text></symbol><symbol id="a"><path fill="transparent" d="M0 0h80v26H0z"/></symbol></defs><path class="a" d="M0 0h80v54.275H0z"/><g style="animation-duration:14.403429s;animation-iteration-count:infinite;animation-name:r;animation-timing-function:steps(1,end)"><svg width="5680"><svg><use xlink:href="#a"/></svg><svg x="80"><use xlink:href="#a"/></svg><svg x="160"><use xlink:href="#a"/></svg><svg x="240"><use xlink:href="#a"/><use xlink:href="#1" y="2.171"/><use xlink:href="#2" y="4.342"/></svg><svg x="320"><use xlink:href="#a"/><use xlink:href="#1" y="2.171"/><use xlink:href="#2" y="4.342"/></svg><svg x="400"><use xlink:href="#a"/><use xlink:href="#1" y="2.171"/><use xlink:href="#2" y="4.342"/></svg><svg x="480"><use xlink:href="#a"/><use xlink:href="#1" y="2.171"/><text y="6.012" class="h">❯</text><text x="2.004" y="6.012" class="j">m</text></svg><svg x="560"><use xlink:href="#a"/><use xlink:href="#1" y="2.171"/><text y="6.012" class="h">❯</text><text x="2.004" y="6.012" class="j">mi</text></svg><svg x="640"><use xlink:href="#a"/><use xlink:href="#1" y="2.171"/><text y="6.012" class="h">❯</text><text x="2.004" y="6.012" class="j">mic</text></svg><svg x="720"><use xlink:href="#a"/><use xlink:href="#1" y="2.171"/><text y="6.012" class="h">❯</text><text x="2.004" y="6.012" class="j">micr</text></svg><svg x="800"><use xlink:href="#a"/><use xlink:href="#1" y="2.171"/><text y="6.012" class="h">❯</text><text x="2.004" y="6.012" class="j">micro</text></svg><svg x="880"><use xlink:href="#a"/><use xlink:href="#1" y="2.171"/><text y="6.012" class="h">❯</text><text x="2.004" y="6.012" class="j">microp</text></svg><svg x="960"><use xlink:href="#a"/><use xlink:href="#1" y="2.171"/><use xlink:href="#3" y="4.342"/></svg><svg x="1040"><use xlink:href="#a"/><use xlink:href="#1" y="2.171"/><use xlink:href="#3" y="4.342"/></svg><svg x="1120"><use xlink:href="#a"/><use xlink:href="#1" y="2.171"/><text y="6.012" class="h">❯</text><text x="2.004" y="6.012" class="i">micropy</text><text x="10.02" y="6.012" class="j">i</text></svg><svg x="1200"><use xlink:href="#a"/><use xlink:href="#1" y="2.171"/><text y="6.012" class="h">❯</text><text x="2.004" y="6.012" class="i">micropy</text><text x="10.02" y="6.012" class="j">in</text></svg><svg x="1280"><use xlink:href="#a"/><use xlink:href="#1" y="2.171"/><text y="6.012" class="h">❯</text><text x="2.004" y="6.012" class="i">micropy</text><text x="10.02" y="6.012" class="j">ini</text></svg><svg x="1360"><use xlink:href="#a"/><use xlink:href="#1" y="2.171"/><use xlink:href="#4" y="4.342"/></svg><svg x="1440"><use xlink:href="#a"/><use xlink:href="#1" y="2.171"/><use xlink:href="#4" y="4.342"/></svg><svg x="1520"><use xlink:href="#a"/><use xlink:href="#1" y="2.171"/><text y="6.012" class="h">❯</text><text x="2.004" y="6.012" class="i">micropy</text><text x="10.02" y="6.012" class="j">init</text><text x="15.03" y="6.012" class="j">N</text></svg><svg x="1600"><use xlink:href="#a"/><use xlink:href="#1" y="2.171"/><text y="6.012" class="h">❯</text><text x="2.004" y="6.012" class="i">micropy</text><text x="10.02" y="6.012" class="j">init</text><text x="15.03" y="6.012" class="j">Ne</text></svg><svg x="1680"><use xlink:href="#a"/><use xlink:href="#1" y="2.171"/><text y="6.012" class="h">❯</text><text x="2.004" y="6.012" class="i">micropy</text><text x="10.02" y="6.012" class="j">init</text><text x="15.03" y="6.012" class="j">New</text></svg><svg x="1760"><use xlink:href="#a"/><use xlink:href="#1" y="2.171"/><text y="6.012" class="h">❯</text><text x="2.004" y="6.012" class="i">micropy</text><text x="10.02" y="6.012" class="j">init</text><text x="15.03" y="6.012" class="j">NewP</text></svg><svg x="1840"><use xlink:href="#a"/><use xlink:href="#1" y="2.171"/><text y="6.012" class="h">❯</text><text x="2.004" y="6.012" class="i">micropy</text><text x="10.02" y="6.012" class="j">init</text><text x="15.03" y="6.012" class="j">NewPr</text></svg><svg x="1920"><use xlink:href="#a"/><use xlink:href="#1" y="2.171"/><text y="6.012" class="h">❯</text><text x="2.004" y="6.012" class="i">micropy</text><text x="10.02" y="6.012" class="j">init</text><text x="15.03" y="6.012" class="j">NewPro</text></svg><svg x="2000"><use xlink:href="#a"/><use xlink:href="#1" y="2.171"/><text y="6.012" class="h">❯</text><text x="2.004" y="6.012" class="i">micropy</text><text x="10.02" y="6.012" class="j">init</text><text x="15.03" y="6.012" class="j">NewProj</text></svg><svg x="2080"><use xlink:href="#a"/><use xlink:href="#1" y="2.171"/><text y="6.012" class="h">❯</text><text x="2.004" y="6.012" class="i">micropy</text><text x="10.02" y="6.012" class="j">init</text><text x="15.03" y="6.012" class="j">NewProje</text></svg><svg x="2160"><use xlink:href="#a"/><use xlink:href="#1" y="2.171"/><text y="6.012" class="h">❯</text><text x="2.004" y="6.012" class="i">micropy</text><text x="10.02" y="6.012" class="j">init</text><text x="15.03" y="6.012" class="j">NewProjec</text></svg><svg x="2240"><use xlink:href="#a"/><use xlink:href="#1" y="2.171"/><use xlink:href="#5" y="4.342"/></svg><svg x="2320"><use xlink:href="#a"/><use xlink:href="#1" y="2.171"/><use xlink:href="#5" y="4.342"/></svg><svg x="2400"><use xlink:href="#a"/><use xlink:href="#1" y="2.171"/><use xlink:href="#5" y="4.342"/></svg><svg x="2480"><use xlink:href="#a"/><use xlink:href="#1" y="2.171"/><use xlink:href="#5" y="4.342"/></svg><svg x="2560"><use xlink:href="#a"/><use xlink:href="#1" y="2.171"/><use xlink:href="#5" y="4.342"/></svg><svg x="2640"><use xlink:href="#a"/><use xlink:href="#1" y="2.171"/><use xlink:href="#5" y="4.342"/><use xlink:href="#6" y="6.513"/></svg><svg x="2720"><use xlink:href="#a"/><use xlink:href="#1" y="2.171"/><use xlink:href="#5" y="4.342"/><use xlink:href="#6" y="6.513"/></svg><svg x="2800"><use xlink:href="#a"/><use xlink:href="#1" y="2.171"/><use xlink:href="#5" y="4.342"/><use xlink:href="#6" y="6.513"/><use xlink:href="#7" y="8.684"/><use xlink:href="#8" y="10.855"/><use xlink:href="#9" y="13.026"/><use xlink:href="#10" y="15.197"/><use xlink:href="#11" y="17.368"/><use xlink:href="#12" y="19.539"/><use xlink:href="#13" y="21.71"/><use xlink:href="#14" y="23.881"/></svg><svg x="2880"><use xlink:href="#a"/><use xlink:href="#1" y="2.171"/><use xlink:href="#5" y="4.342"/><use xlink:href="#6" y="6.513"/><use xlink:href="#7" y="8.684"/><use xlink:href="#8" y="10.855"/><use xlink:href="#9" y="13.026"/><use xlink:href="#10" y="15.197"/><use xlink:href="#11" y="17.368"/><use xlink:href="#12" y="19.539"/><use xlink:href="#13" y="21.71"/><use xlink:href="#14" y="23.881"/></svg><svg x="2960"><use xlink:href="#a"/><use xlink:href="#1" y="2.171"/><use xlink:href="#5" y="4.342"/><use xlink:href="#6" y="6.513"/><use xlink:href="#7" y="8.684"/><use xlink:href="#8" y="10.855"/><use xlink:href="#15" y="13.026"/><text x="1.002" y="16.867" class="j">»</text><text x="3.006" y="16.867" class="j">○</text><text x="5.01" y="16.867" class="j">esp8266@v1.9.4-8-ga9a3caad0</text><text x="33.066" y="16.867" class="j">on</text><text x="36.072" y="16.867" class="j">2018-05-11</text><use xlink:href="#11" y="17.368"/><use xlink:href="#12" y="19.539"/><use xlink:href="#13" y="21.71"/><use xlink:href="#14" y="23.881"/></svg><svg x="3040"><use xlink:href="#a"/><use xlink:href="#1" y="2.171"/><use xlink:href="#5" y="4.342"/><use xlink:href="#6" y="6.513"/><use xlink:href="#7" y="8.684"/><use xlink:href="#8" y="10.855"/><use xlink:href="#15" y="13.026"/><use xlink:href="#10" y="15.197"/><text x="1.002" y="19.038" class="j">»</text><text x="3.006" y="19.038" class="j">○</text><text x="5.01" y="19.038" class="j">esp32_LoBo@ESP32_LoBo_v3.2.24</text><text x="35.07" y="19.038" class="j">on</text><text x="38.076" y="19.038" class="j">2018-09-06</text><use xlink:href="#12" y="19.539"/><use xlink:href="#13" y="21.71"/><use xlink:href="#14" y="23.881"/></svg><svg x="3120"><use xlink:href="#a"/><use xlink:href="#1" y="2.171"/><use xlink:href="#5" y="4.342"/><use xlink:href="#6" y="6.513"/><use xlink:href="#7" y="8.684"/><use xlink:href="#8" y="10.855"/><use xlink:href="#15" y="13.026"/><use xlink:href="#10" y="15.197"/><use xlink:href="#11" y="17.368"/><text x="1.002" y="21.209" class="j">»</text><text x="3.006" y="21.209" class="j">○</text><text x="5.01" y="21.209" class="j">esp8266@v1.11-8-g48dcbbe60</text><text x="32.064" y="21.209" class="j">on</text><text x="35.07" y="21.209" class="j">2019-05-29</text><use xlink:href="#13" y="21.71"/><use xlink:href="#14" y="23.881"/></svg><svg x="3200"><use xlink:href="#a"/><use xlink:href="#1" y="2.171"/><use xlink:href="#5" y="4.342"/><use xlink:href="#6" y="6.513"/><use xlink:href="#7" y="8.684"/><use xlink:href="#8" y="10.855"/><use xlink:href="#15" y="13.026"/><use xlink:href="#10" y="15.197"/><use xlink:href="#11" y="17.368"/><text x="1.002" y="21.209" class="j">»</text><path class="j" d="M3.006 19.539h42v2.171h-42z"/><text x="3.006" y="21.209" class="a">● esp8266@v1.11-8-g48dcbbe60 on 2019-05-29</text><use xlink:href="#13" y="21.71"/><use xlink:href="#14" y="23.881"/></svg><svg x="3280"><use xlink:href="#a"/><use xlink:href="#1" y="2.171"/><use xlink:href="#5" y="4.342"/><use xlink:href="#6" y="6.513"/><use xlink:href="#16" y="8.684"/></svg><svg x="3360"><use xlink:href="#a"/><use xlink:href="#1" y="2.171"/><use xlink:href="#5" y="4.342"/><use xlink:href="#6" y="6.513"/><use xlink:href="#16" y="8.684"/><use xlink:href="#17" y="13.026"/></svg><svg x="3440"><use xlink:href="#a"/><use xlink:href="#1" y="2.171"/><use xlink:href="#5" y="4.342"/><use xlink:href="#6" y="6.513"/><use xlink:href="#16" y="8.684"/><use xlink:href="#17" y="13.026"/><use xlink:href="#18" y="15.197"/></svg><svg x="3520"><use xlink:href="#a"/><use xlink:href="#1" y="2.171"/><use xlink:href="#5" y="4.342"/><use xlink:href="#6" y="6.513"/><use xlink:href="#16" y="8.684"/><use xlink:href="#17" y="13.026"/><use xlink:href="#18" y="15.197"/><use xlink:href="#19" y="17.368"/></svg><svg x="3600"><use xlink:href="#a"/><use xlink:href="#1" y="2.171"/><use xlink:href="#5" y="4.342"/><use xlink:href="#6" y="6.513"/><use xlink:href="#16" y="8.684"/><use xlink:href="#17" y="13.026"/><use xlink:href="#18" y="15.197"/><use xlink:href="#19" y="17.368"/><use xlink:href="#20" y="19.539"/></svg><svg x="3680"><use xlink:href="#a"/><use xlink:href="#1" y="2.171"/><use xlink:href="#5" y="4.342"/><use xlink:href="#6" y="6.513"/><use xlink:href="#16" y="8.684"/><use xlink:href="#17" y="13.026"/><use xlink:href="#18" y="15.197"/><use xlink:href="#19" y="17.368"/><use xlink:href="#20" y="19.539"/><text y="23.38" class="h">MicroPy</text><text x="8.016" y="23.38" class="i">‣</text><text x="10.02" y="23.38" class="m">NewProject</text><text x="21.042" y="23.38" class="m">‣</text></svg><svg x="3760"><use xlink:href="#a"/><use xlink:href="#1" y="2.171"/><use xlink:href="#5" y="4.342"/><use xlink:href="#6" y="6.513"/><use xlink:href="#16" y="8.684"/><use xlink:href="#17" y="13.026"/><use xlink:href="#18" y="15.197"/><use xlink:href="#19" y="17.368"/><use xlink:href="#20" y="19.539"/><use xlink:href="#21" y="21.71"/></svg><svg x="3840"><use xlink:href="#a"/><use xlink:href="#1" y="2.171"/><use xlink:href="#5" y="4.342"/><use xlink:href="#6" y="6.513"/><use xlink:href="#16" y="8.684"/><use xlink:href="#17" y="13.026"/><use xlink:href="#18" y="15.197"/><use xlink:href="#19" y="17.368"/><use xlink:href="#20" y="19.539"/><use xlink:href="#21" y="21.71"/><text y="25.551" class="h">MicroPy</text><text x="8.016" y="25.551" class="i">‣</text></svg><svg x="3920"><use xlink:href="#a"/><use xlink:href="#1" y="2.171"/><use xlink:href="#5" y="4.342"/><use xlink:href="#6" y="6.513"/><use xlink:href="#16" y="8.684"/><use xlink:href="#17" y="13.026"/><use xlink:href="#18" y="15.197"/><use xlink:href="#19" y="17.368"/><use xlink:href="#20" y="19.539"/><use xlink:href="#21" y="21.71"/><use xlink:href="#22" y="23.881"/></svg><svg x="4000"><use xlink:href="#a"/><use xlink:href="#1" y="2.171"/><use xlink:href="#5" y="4.342"/><use xlink:href="#6" y="6.513"/><use xlink:href="#16" y="8.684"/><use xlink:href="#17" y="13.026"/><use xlink:href="#18" y="15.197"/><use xlink:href="#19" y="17.368"/><use xlink:href="#20" y="19.539"/><use xlink:href="#21" y="21.71"/><use xlink:href="#22" y="23.881"/></svg><svg x="4080"><use xlink:href="#a"/><use xlink:href="#1" y="2.171"/><use xlink:href="#5" y="4.342"/><use xlink:href="#6" y="6.513"/><use xlink:href="#16" y="8.684"/><use xlink:href="#17" y="13.026"/><use xlink:href="#18" y="15.197"/><use xlink:href="#19" y="17.368"/><use xlink:href="#20" y="19.539"/><use xlink:href="#21" y="21.71"/><use xlink:href="#22" y="23.881"/></svg><svg x="4160"><use xlink:href="#a"/><use xlink:href="#1" y="2.171"/><use xlink:href="#5" y="4.342"/><use xlink:href="#6" y="6.513"/><use xlink:href="#16" y="8.684"/><use xlink:href="#17" y="13.026"/><use xlink:href="#18" y="15.197"/><use xlink:href="#19" y="17.368"/><use xlink:href="#20" y="19.539"/><use xlink:href="#21" y="21.71"/><use xlink:href="#22" y="23.881"/><use xlink:href="#23" y="28.223"/><use xlink:href="#2" y="30.394"/></svg><svg x="4240"><use xlink:href="#a"/><use xlink:href="#1" y="2.171"/><use xlink:href="#5" y="4.342"/><use xlink:href="#6" y="6.513"/><use xlink:href="#16" y="8.684"/><use xlink:href="#17" y="13.026"/><use xlink:href="#18" y="15.197"/><use xlink:href="#19" y="17.368"/><use xlink:href="#20" y="19.539"/><use xlink:href="#21" y="21.71"/><use xlink:href="#22" y="23.881"/><use xlink:href="#23" y="28.223"/><use xlink:href="#2" y="30.394"/></svg><svg x="4320"><use xlink:href="#a"/><use xlink:href="#1" y="2.171"/><use xlink:href="#5" y="4.342"/><use xlink:href="#6" y="6.513"/><use xlink:href="#16" y="8.684"/><use xlink:href="#17" y="13.026"/><use xlink:href="#18" y="15.197"/><use xlink:href="#19" y="17.368"/><use xlink:href="#20" y="19.539"/><use xlink:href="#21" y="21.71"/><use xlink:href="#22" y="23.881"/><use xlink:href="#23" y="28.223"/><use xlink:href="#2" y="30.394"/></svg><svg x="4400"><use xlink:href="#a"/><use xlink:href="#1" y="2.171"/><use xlink:href="#5" y="4.342"/><use xlink:href="#6" y="6.513"/><use xlink:href="#16" y="8.684"/><use xlink:href="#17" y="13.026"/><use xlink:href="#18" y="15.197"/><use xlink:href="#19" y="17.368"/><use xlink:href="#20" y="19.539"/><use xlink:href="#21" y="21.71"/><use xlink:href="#22" y="23.881"/><use xlink:href="#23" y="28.223"/><text y="32.064" class="h">❯</text><text x="2.004" y="32.064" class="j">t</text></svg><svg x="4480"><use xlink:href="#a"/><use xlink:href="#1" y="2.171"/><use xlink:href="#5" y="4.342"/><use xlink:href="#6" y="6.513"/><use xlink:href="#16" y="8.684"/><use xlink:href="#17" y="13.026"/><use xlink:href="#18" y="15.197"/><use xlink:href="#19" y="17.368"/><use xlink:href="#20" y="19.539"/><use xlink:href="#21" y="21.71"/><use xlink:href="#22" y="23.881"/><use xlink:href="#23" y="28.223"/><text y="32.064" class="h">❯</text><text x="2.004" y="32.064" class="i">tr</text></svg><svg x="4560"><use xlink:href="#a"/><use xlink:href="#1" y="2.171"/><use xlink:href="#5" y="4.342"/><use xlink:href="#6" y="6.513"/><use xlink:href="#16" y="8.684"/><use xlink:href="#17" y="13.026"/><use xlink:href="#18" y="15.197"/><use xlink:href="#19" y="17.368"/><use xlink:href="#20" y="19.539"/><use xlink:href="#21" y="21.71"/><use xlink:href="#22" y="23.881"/><use xlink:href="#23" y="28.223"/><text y="32.064" class="h">❯</text><text x="2.004" y="32.064" fill="#e88388">tre</text></svg><svg x="4640"><use xlink:href="#a"/><use xlink:href="#1" y="2.171"/><use xlink:href="#5" y="4.342"/><use xlink:href="#6" y="6.513"/><use xlink:href="#16" y="8.684"/><use xlink:href="#17" y="13.026"/><use xlink:href="#18" y="15.197"/><use xlink:href="#19" y="17.368"/><use xlink:href="#20" y="19.539"/><use xlink:href="#21" y="21.71"/><use xlink:href="#22" y="23.881"/><use xlink:href="#23" y="28.223"/><use xlink:href="#24" y="30.394"/></svg><svg x="4720"><use xlink:href="#a"/><use xlink:href="#1" y="2.171"/><use xlink:href="#5" y="4.342"/><use xlink:href="#6" y="6.513"/><use xlink:href="#16" y="8.684"/><use xlink:href="#17" y="13.026"/><use xlink:href="#18" y="15.197"/><use xlink:href="#19" y="17.368"/><use xlink:href="#20" y="19.539"/><use xlink:href="#21" y="21.71"/><use xlink:href="#22" y="23.881"/><use xlink:href="#23" y="28.223"/><use xlink:href="#24" y="30.394"/></svg><svg x="4800"><use xlink:href="#a"/><use xlink:href="#1" y="2.171"/><use xlink:href="#5" y="4.342"/><use xlink:href="#6" y="6.513"/><use xlink:href="#16" y="8.684"/><use xlink:href="#17" y="13.026"/><use xlink:href="#18" y="15.197"/><use xlink:href="#19" y="17.368"/><use xlink:href="#20" y="19.539"/><use xlink:href="#21" y="21.71"/><use xlink:href="#22" y="23.881"/><use xlink:href="#23" y="28.223"/><use xlink:href="#24" y="30.394"/></svg><svg x="4880"><use xlink:href="#a"/><use xlink:href="#1" y="2.171"/><use xlink:href="#5" y="4.342"/><use xlink:href="#6" y="6.513"/><use xlink:href="#16" y="8.684"/><use xlink:href="#17" y="13.026"/><use xlink:href="#18" y="15.197"/><use xlink:href="#19" y="17.368"/><use xlink:href="#20" y="19.539"/><use xlink:href="#21" y="21.71"/><use xlink:href="#22" y="23.881"/><use xlink:href="#23" y="28.223"/><use xlink:href="#24" y="30.394"/></svg><svg x="4960"><use xlink:href="#a"/><use xlink:href="#1" y="2.171"/><use xlink:href="#5" y="4.342"/><use xlink:href="#6" y="6.513"/><use xlink:href="#16" y="8.684"/><use xlink:href="#17" y="13.026"/><use xlink:href="#18" y="15.197"/><use xlink:href="#19" y="17.368"/><use xlink:href="#20" y="19.539"/><use xlink:href="#21" y="21.71"/><use xlink:href="#22" y="23.881"/><use xlink:href="#23" y="28.223"/><use xlink:href="#24" y="30.394"/><use xlink:href="#25" y="32.565"/><use xlink:href="#26" y="34.736"/><use xlink:href="#27" y="36.907"/><use xlink:href="#28" y="39.078"/><use xlink:href="#29" y="41.249"/><use xlink:href="#30" y="43.42"/><use xlink:href="#31" y="45.591"/><use xlink:href="#32" y="47.762"/></svg><svg x="5040"><use xlink:href="#a"/><use xlink:href="#1" y="2.171"/><use xlink:href="#5" y="4.342"/><use xlink:href="#6" y="6.513"/><use xlink:href="#16" y="8.684"/><use xlink:href="#17" y="13.026"/><use xlink:href="#18" y="15.197"/><use xlink:href="#19" y="17.368"/><use xlink:href="#20" y="19.539"/><use xlink:href="#21" y="21.71"/><use xlink:href="#22" y="23.881"/><use xlink:href="#23" y="28.223"/><use xlink:href="#24" y="30.394"/><use xlink:href="#25" y="32.565"/><use xlink:href="#26" y="34.736"/><use xlink:href="#27" y="36.907"/><use xlink:href="#28" y="39.078"/><use xlink:href="#29" y="41.249"/><use xlink:href="#30" y="43.42"/><use xlink:href="#31" y="45.591"/><use xlink:href="#32" y="47.762"/><use xlink:href="#33" y="52.104"/></svg><svg x="5120"><use xlink:href="#a"/><use xlink:href="#1" y="2.171"/><use xlink:href="#5" y="4.342"/><use xlink:href="#6" y="6.513"/><use xlink:href="#16" y="8.684"/><use xlink:href="#17" y="13.026"/><use xlink:href="#18" y="15.197"/><use xlink:href="#19" y="17.368"/><use xlink:href="#20" y="19.539"/><use xlink:href="#21" y="21.71"/><use xlink:href="#22" y="23.881"/><use xlink:href="#23" y="28.223"/><use xlink:href="#24" y="30.394"/><use xlink:href="#25" y="32.565"/><use xlink:href="#26" y="34.736"/><use xlink:href="#27" y="36.907"/><use xlink:href="#28" y="39.078"/><use xlink:href="#29" y="41.249"/><use xlink:href="#30" y="43.42"/><use xlink:href="#31" y="45.591"/><use xlink:href="#32" y="47.762"/><use xlink:href="#33" y="52.104"/></svg><svg x="5200"><use xlink:href="#a"/><use xlink:href="#1" y="2.171"/><use xlink:href="#5" y="4.342"/><use xlink:href="#6" y="6.513"/><use xlink:href="#16" y="8.684"/><use xlink:href="#17" y="13.026"/><use xlink:href="#18" y="15.197"/><use xlink:href="#19" y="17.368"/><use xlink:href="#20" y="19.539"/><use xlink:href="#21" y="21.71"/><use xlink:href="#22" y="23.881"/><use xlink:href="#23" y="28.223"/><use xlink:href="#24" y="30.394"/><use xlink:href="#25" y="32.565"/><use xlink:href="#26" y="34.736"/><use xlink:href="#27" y="36.907"/><use xlink:href="#28" y="39.078"/><use xlink:href="#29" y="41.249"/><use xlink:href="#30" y="43.42"/><use xlink:href="#31" y="45.591"/><use xlink:href="#32" y="47.762"/><use xlink:href="#33" y="52.104"/></svg><svg x="5280"><use xlink:href="#a"/><use xlink:href="#1" y="2.171"/><use xlink:href="#5" y="4.342"/><use xlink:href="#6" y="6.513"/><use xlink:href="#16" y="8.684"/><use xlink:href="#17" y="13.026"/><use xlink:href="#18" y="15.197"/><use xlink:href="#19" y="17.368"/><use xlink:href="#20" y="19.539"/><use xlink:href="#21" y="21.71"/><use xlink:href="#22" y="23.881"/><use xlink:href="#23" y="28.223"/><use xlink:href="#24" y="30.394"/><use xlink:href="#25" y="32.565"/><use xlink:href="#26" y="34.736"/><use xlink:href="#27" y="36.907"/><use xlink:href="#28" y="39.078"/><use xlink:href="#29" y="41.249"/><use xlink:href="#30" y="43.42"/><use xlink:href="#31" y="45.591"/><use xlink:href="#32" y="47.762"/><use xlink:href="#33" y="52.104"/></svg><svg x="5360"><use xlink:href="#a"/><use xlink:href="#5"/><use xlink:href="#6" y="2.171"/><use xlink:href="#16" y="4.342"/><use xlink:href="#17" y="8.684"/><use xlink:href="#18" y="10.855"/><use xlink:href="#19" y="13.026"/><use xlink:href="#20" y="15.197"/><use xlink:href="#21" y="17.368"/><use xlink:href="#22" y="19.539"/><use xlink:href="#23" y="23.881"/><use xlink:href="#24" y="26.052"/><use xlink:href="#25" y="28.223"/><use xlink:href="#26" y="30.394"/><use xlink:href="#27" y="32.565"/><use xlink:href="#28" y="34.736"/><use xlink:href="#29" y="36.907"/><use xlink:href="#30" y="39.078"/><use xlink:href="#31" y="41.249"/><use xlink:href="#32" y="43.42"/><use xlink:href="#33" y="47.762"/><use xlink:href="#1" y="52.104"/><use xlink:href="#2" y="54.275"/></svg><svg x="5440"><use xlink:href="#a"/><use xlink:href="#5"/><use xlink:href="#6" y="2.171"/><use xlink:href="#16" y="4.342"/><use xlink:href="#17" y="8.684"/><use xlink:href="#18" y="10.855"/><use xlink:href="#19" y="13.026"/><use xlink:href="#20" y="15.197"/><use xlink:href="#21" y="17.368"/><use xlink:href="#22" y="19.539"/><use xlink:href="#23" y="23.881"/><use xlink:href="#24" y="26.052"/><use xlink:href="#25" y="28.223"/><use xlink:href="#26" y="30.394"/><use xlink:href="#27" y="32.565"/><use xlink:href="#28" y="34.736"/><use xlink:href="#29" y="36.907"/><use xlink:href="#30" y="39.078"/><use xlink:href="#31" y="41.249"/><use xlink:href="#32" y="43.42"/><use xlink:href="#33" y="47.762"/><use xlink:href="#1" y="52.104"/><use xlink:href="#2" y="54.275"/></svg><svg x="5520"><use xlink:href="#a"/><use xlink:href="#5"/><use xlink:href="#6" y="2.171"/><use xlink:href="#16" y="4.342"/><use xlink:href="#17" y="8.684"/><use xlink:href="#18" y="10.855"/><use xlink:href="#19" y="13.026"/><use xlink:href="#20" y="15.197"/><use xlink:href="#21" y="17.368"/><use xlink:href="#22" y="19.539"/><use xlink:href="#23" y="23.881"/><use xlink:href="#24" y="26.052"/><use xlink:href="#25" y="28.223"/><use xlink:href="#26" y="30.394"/><use xlink:href="#27" y="32.565"/><use xlink:href="#28" y="34.736"/><use xlink:href="#29" y="36.907"/><use xlink:href="#30" y="39.078"/><use xlink:href="#31" y="41.249"/><use xlink:href="#32" y="43.42"/><use xlink:href="#33" y="47.762"/><use xlink:href="#1" y="52.104"/><use xlink:href="#2" y="54.275"/></svg><svg x="5600"><use xlink:href="#a"/><use xlink:href="#6"/><use xlink:href="#16" y="2.171"/><use xlink:href="#17" y="6.513"/><use xlink:href="#18" y="8.684"/><use xlink:href="#19" y="10.855"/><use xlink:href="#20" y="13.026"/><use xlink:href="#21" y="15.197"/><use xlink:href="#22" y="17.368"/><use xlink:href="#23" y="21.71"/><use xlink:href="#24" y="23.881"/><use xlink:href="#25" y="26.052"/><use xlink:href="#26" y="28.223"/><use xlink:href="#27" y="30.394"/><use xlink:href="#28" y="32.565"/><use xlink:href="#29" y="34.736"/><use xlink:href="#30" y="36.907"/><use xlink:href="#31" y="39.078"/><use xlink:href="#32" y="41.249"/><use xlink:href="#33" y="45.591"/><use xlink:href="#1" y="49.933"/><use xlink:href="#2" y="52.104"/></svg></svg></g></g></svg></svg>