<svg xmlns="http://www.w3.org/2000/svg" xmlns:xlink="http://www.w3.org/1999/xlink" width="840" height="515.91"><rect width="840" height="515.91" rx="5" ry="5" class="a"/><svg y="0%" x="0%"><circle cx="20" cy="20" r="6" fill="#ff5f58"/><circle cx="40" cy="20" r="6" fill="#ffbd2e"/><circle cx="60" cy="20" r="6" fill="#18c132"/></svg><svg height="455.91" viewBox="0 0 80 45.591" width="800" x="15" xmlns="http://www.w3.org/2000/svg" xmlns:xlink="http://www.w3.org/1999/xlink" y="30"><style>@keyframes u{0%{transform:translateX(0)}.28%{transform:translateX(-80px)}1.17%{transform:translateX(-240px)}1.18%{transform:translateX(-320px)}6.34%{transform:translateX(-400px)}7.66%{transform:translateX(-480px)}8.46%{transform:translateX(-560px)}10.06%{transform:translateX(-640px)}10.71%{transform:translateX(-720px)}12.25%{transform:translateX(-800px)}13.37%{transform:translateX(-880px)}14.5%{transform:translateX(-960px)}17.5%{transform:translateX(-1040px)}18.13%{transform:translateX(-1120px)}18.69%{transform:translateX(-1200px)}19.28%{transform:translateX(-1280px)}19.87%{transform:translateX(-1360px)}21.41%{transform:translateX(-1440px)}22.61%{transform:translateX(-1520px)}23.03%{transform:translateX(-1600px)}24.91%{transform:translateX(-1680px)}25.99%{transform:translateX(-1760px)}26.5%{transform:translateX(-1840px)}27.52%{transform:translateX(-1920px)}28.07%{transform:translateX(-2000px)}28.44%{transform:translateX(-2080px)}30.44%{transform:translateX(-2160px)}33.19%{transform:translateX(-2240px)}33.24%{transform:translateX(-2320px)}33.25%{transform:translateX(-2400px)}36.48%{transform:translateX(-2480px)}36.59%{transform:translateX(-2560px)}36.62%{transform:translateX(-2640px)}36.66%{transform:translateX(-2720px)}45.21%{transform:translateX(-2800px)}46.87%{transform:translateX(-2880px)}48.68%{transform:translateX(-2960px)}51.4%{transform:translateX(-3040px)}56.47%{transform:translateX(-3120px)}56.49%{transform:translateX(-3200px)}57.03%{transform:translateX(-3280px)}57.04%{transform:translateX(-3360px)}57.05%{transform:translateX(-3440px)}57.59%{transform:translateX(-3520px)}58.95%{transform:translateX(-3600px)}60.28%{transform:translateX(-3760px)}60.29%{transform:translateX(-3840px)}67.97%{transform:translateX(-3920px)}70.25%{transform:translateX(-4000px)}72.58%{transform:translateX(-4080px)}77.15%{transform:translateX(-4160px)}78.23%{transform:translateX(-4240px)}79.01%{transform:translateX(-4320px)}79.3%{transform:translateX(-4400px)}80.66%{transform:translateX(-4480px)}82.56%{transform:translateX(-4560px)}85.38%{transform:translateX(-4640px)}85.45%{transform:translateX(-4720px)}85.46%{transform:translateX(-4800px)}85.52%{transform:translateX(-4880px)}85.53%{transform:translateX(-5040px)}86.9%{transform:translateX(-5120px)}88.24%{transform:translateX(-5280px)}88.25%{transform:translateX(-5360px)}to{transform:translateX(-5440px)}}.a{fill:#282d35}.f{fill:#b9c0cb}.h{fill:#66c2cd;font-weight:700}.i{fill:#b9c0cb}.i,.j{font-weight:700}.j,.k{fill:#a8cc8c}.l{fill:#6f7783}.m{fill:#5f87af}.n{fill:#ffaf00;font-weight:700}.o{fill:#66c2cd}.r{fill:#71bef2;font-weight:700}</style><g font-size="1.67" font-family="Monaco,Consolas,Menlo,'Bitstream Vera Sans Mono','Powerline Symbols',monospace"><defs><symbol id="1"><text y="1.67" fill="#282d35" font-weight="700">%</text></symbol><symbol id="2"><text y="1.67" class="h">~</text><text x="2.004" y="1.67" class="i">via</text><text x="6.012" y="1.67" class="j">⬢</text><text x="8.016" y="1.67" class="j">v11.13.0</text></symbol><symbol id="3"><text y="1.67" class="j">❯</text></symbol><symbol id="4"><text y="1.67" class="j">❯</text><text x="2.004" y="1.67" class="k">micropy</text><text x="10.02" y="1.67" class="l">init</text><text x="15.03" y="1.67" class="l">NewProject</text></symbol><symbol id="5"><text y="1.67" class="j">❯</text><text x="2.004" y="1.67" class="k">micropy</text><text x="10.02" y="1.67" class="f">init</text><text x="15.03" y="1.67" class="l">NewProject</text></symbol><symbol id="6"><text y="1.67" class="j">❯</text><text x="2.004" y="1.67" class="k">micropy</text><text x="10.02" y="1.67" class="f">init</text><text x="15.03" y="1.67" class="f">NewProject</text></symbol><symbol id="7"><text y="1.67" class="j">[MicroPy]</text><text x="10.02" y="1.67" class="j">❯</text><text x="12.024" y="1.67" class="f">Creating</text><text x="21.042" y="1.67" class="f">New</text><text x="25.05" y="1.67" class="f">Project...</text></symbol><symbol id="8"><text y="1.67" class="m">?</text><text x="2.004" y="1.67" class="i">Which</text><text x="8.016" y="1.67" class="i">stubs</text><text x="14.028" y="1.67" class="i">would</text><text x="20.04" y="1.67" class="i">you</text><text x="24.048" y="1.67" class="i">like</text><text x="29.058" y="1.67" class="i">to</text><text x="32.064" y="1.67" class="i">use?</text><text x="38.076" y="1.67" class="f">(Use</text><text x="43.086" y="1.67" class="f">arrow</text><text x="49.098" y="1.67" class="f">keys</text><text x="54.108" y="1.67" class="f">to</text><text x="57.114" y="1.67" class="f">move,</text><text x="63.126" y="1.67" class="f">&lt;space&gt;</text><text x="71.142" y="1.67" class="f">to</text><text x="74.148" y="1.67" class="f">seleco</text></symbol><symbol id="9"><text x="1.002" y="1.67" class="f">invert)</text></symbol><symbol id="10"><text x="1.002" y="1.67" class="f">»</text><text x="3.006" y="1.67" class="f">○</text><text x="5.01" y="1.67" class="f">esp32@&apos;v1.10-247-g0fb15fc3f</text><text x="33.066" y="1.67" class="f">on</text><text x="36.072" y="1.67" class="f">2019-03-29</text></symbol><symbol id="11"><text x="3.006" y="1.67" class="f">○</text><text x="5.01" y="1.67" class="f">esp8266@v1.9.4-8-ga9a3caad0</text><text x="33.066" y="1.67" class="f">on</text><text x="36.072" y="1.67" class="f">2018-05-11</text></symbol><symbol id="12"><text x="3.006" y="1.67" class="f">○</text><text x="5.01" y="1.67" class="f">esp32_LoBo@ESP32_LoBo_v3.2.24</text><text x="35.07" y="1.67" class="f">on</text><text x="38.076" y="1.67" class="f">2018-09-06</text></symbol><symbol id="13"><text x="3.006" y="1.67" class="f">○</text><text x="5.01" y="1.67" class="f">esp8266@v1.11-8-g48dcbbe60</text><text x="32.064" y="1.67" class="f">on</text><text x="35.07" y="1.67" class="f">2019-05-29</text></symbol><symbol id="14"><text x="3.006" y="1.67" class="f">○</text><text x="5.01" y="1.67" class="f">esp8266@v1.9.3-8-g63826ac5c</text><text x="33.066" y="1.67" class="f">on</text><text x="36.072" y="1.67" class="f">2017-11-01</text></symbol><symbol id="15"><text x="3.006" y="1.67" class="f">○</text><text x="5.01" y="1.67" class="f">esp8266@v1.10-8-g8b7039d7d</text><text x="32.064" y="1.67" class="f">on</text><text x="35.07" y="1.67" class="f">2019-01-26</text></symbol><symbol id="16"><text x="3.006" y="1.67" class="f">○</text><text x="5.01" y="1.67" class="f">esp32_LoBo@ESP32_LoBo_v3.2.9</text><text x="34.068" y="1.67" class="f">on</text><text x="37.074" y="1.67" class="f">2018-04-12</text></symbol><symbol id="17"><text x="3.006" y="1.67" class="f">○</text><text x="5.01" y="1.67" class="f">esp32@&apos;v1.10-247-g0fb15fc3f</text><text x="33.066" y="1.67" class="f">on</text><text x="36.072" y="1.67" class="f">2019-03-29</text></symbol><symbol id="18"><text y="1.67" class="m">?</text><text x="2.004" y="1.67" class="i">Which</text><text x="8.016" y="1.67" class="i">stubs</text><text x="14.028" y="1.67" class="i">would</text><text x="20.04" y="1.67" class="i">you</text><text x="24.048" y="1.67" class="i">like</text><text x="29.058" y="1.67" class="i">to</text><text x="32.064" y="1.67" class="i">use?</text><text x="38.076" y="1.67" class="n">[esp8266@v1.11-8-g48dcbbe60</text><text x="66.132" y="1.67" class="n">on</text><text x="69.138" y="1.67" class="n">2019-05-29</text></symbol><symbol id="19"><text y="1.67" class="j">[MicroPy]</text><text x="10.02" y="1.67" class="j">❯</text><text x="12.024" y="1.67" class="o">[NewProject]</text><text x="25.05" y="1.67" class="o">❯</text><text x="27.054" y="1.67" class="f">Initiating</text><text x="38.076" y="1.67" fill="#dbab79">NewProject</text></symbol><symbol id="20"><text y="1.67" class="j">[MicroPy]</text><text x="10.02" y="1.67" class="j">❯</text><text x="12.024" y="1.67" class="o">[NewProject]</text><text x="25.05" y="1.67" class="o">❯</text><text x="27.054" y="1.67" class="f">Populating</text><text x="38.076" y="1.67" class="f">Stub</text><text x="43.086" y="1.67" class="f">info...</text></symbol><symbol id="21"><text y="1.67" class="j">[MicroPy]</text><text x="10.02" y="1.67" class="j">❯</text><text x="12.024" y="1.67" class="o">[NewProject]</text><text x="25.05" y="1.67" class="o">❯</text><text x="27.054" y="1.67" class="k">✔</text><text x="29.058" y="1.67" class="k">Stubs</text><text x="35.07" y="1.67" class="k">Injected!</text></symbol><symbol id="22"><text y="1.67" class="j">[MicroPy]</text><text x="10.02" y="1.67" class="j">❯</text><text x="12.024" y="1.67" class="o">[NewProject]</text><text x="25.05" y="1.67" class="o">❯</text><text x="27.054" y="1.67" class="k">✔</text><text x="29.058" y="1.67" class="k">Project</text><text x="37.074" y="1.67" class="k">Initiated!</text></symbol><symbol id="23"><text y="1.67" class="h">~</text><text x="2.004" y="1.67" class="i">via</text><text x="6.012" y="1.67" class="j">⬢</text><text x="8.016" y="1.67" class="j">v11.13.0</text><text x="17.034" y="1.67" class="i">took</text><text x="22.044" y="1.67" fill="#dbab79" font-weight="700">5s</text></symbol><symbol id="24"><text y="1.67" class="j">❯</text><text x="2.004" y="1.67" class="o">t</text><text x="3.006" y="1.67" class="l">ypeset</text><text x="10.02" y="1.67" class="l">-A</text><text x="13.026" y="1.67" class="l">ZSH_HIGHLIGHT_STYLES</text></symbol><symbol id="25"><text y="1.67" class="j">❯</text><text x="2.004" y="1.67" class="o">te</text><text x="4.008" y="1.67" class="l">rmtosvg</text><text x="12.024" y="1.67" class="l">-t</text><text x="15.03" y="1.67" class="l">./termtosvg-templates/darcula.svg</text><text x="49.098" y="1.67" class="l">-s</text><text x="52.104" y="1.67" class="l">micropy_svg</text></symbol><symbol id="26"><text y="1.67" class="j">❯</text><text x="2.004" y="1.67" class="k">tree</text><text x="7.014" y="1.67" class="f">-a</text><text x="10.02" y="1.67" class="f">-L</text><text x="13.026" y="1.67" class="f">2</text><text x="15.03" y="1.67" class="o">NewProject</text></symbol><symbol id="27"><text y="1.67" class="r">NewProject</text></symbol><symbol id="28"><text y="1.67" class="f">├──</text><text x="4.008" y="1.67" class="f">.pylintrc</text></symbol><symbol id="29"><text y="1.67" class="f">├──</text><text x="4.008" y="1.67" class="f">pymakr.conf</text></symbol><symbol id="30"><text y="1.67" class="f">├──</text><text x="4.008" y="1.67" class="r">src</text></symbol><symbol id="31"><text y="1.67" class="f">│</text><text x="4.008" y="1.67" class="f">├──</text><text x="8.016" y="1.67" class="f">boot.py</text></symbol><symbol id="32"><text y="1.67" class="f">│</text><text x="4.008" y="1.67" class="f">├──</text><text x="8.016" y="1.67" class="f">main.py</text></symbol><symbol id="33"><text y="1.67" class="f">│</text><text x="4.008" y="1.67" class="f">└──</text><text x="8.016" y="1.67" class="r">__pycache__</text></symbol><symbol id="34"><text y="1.67" class="f">└──</text><text x="4.008" y="1.67" class="r">.vscode</text></symbol><symbol id="35"><text x="4.008" y="1.67" class="f">└──</text><text x="8.016" y="1.67" class="f">settings.json</text></symbol><symbol id="36"><text y="1.67" class="f">3</text><text x="2.004" y="1.67" class="f">directories,</text><text x="15.03" y="1.67" class="f">5</text><text x="17.034" y="1.67" class="f">files</text></symbol><symbol id="a"><path fill="transparent" d="M0 0h80v22H0z"/></symbol><symbol id="b"><path fill="#6f7683" d="M0 0h1.102v2.171H0z"/></symbol></defs><path class="a" d="M0 0h80v45.591H0z"/><g style="animation-duration:17.254162s;animation-iteration-count:infinite;animation-name:u;animation-timing-function:steps(1,end)"><svg width="5520"><svg><use xlink:href="#a"/><use xlink:href="#b" x="-.004" y="2.146"/><use xlink:href="#1"/></svg><svg x="80"><use xlink:href="#a"/><use xlink:href="#b" x="-.004" y="2.146"/><use xlink:href="#1"/></svg><svg x="160"><use xlink:href="#a"/><use xlink:href="#b" x="1.996" y="6.488"/><use xlink:href="#1"/><use xlink:href="#2" y="4.342"/><use xlink:href="#3" y="6.513"/></svg><svg x="240"><use xlink:href="#a"/><use xlink:href="#b" x="1.996" y="6.488"/><use xlink:href="#1"/><use xlink:href="#2" y="4.342"/><use xlink:href="#3" y="6.513"/></svg><svg x="320"><use xlink:href="#a"/><use xlink:href="#b" x="1.996" y="6.488"/><use xlink:href="#1"/><use xlink:href="#2" y="4.342"/><use xlink:href="#3" y="6.513"/></svg><svg x="400"><use xlink:href="#a"/><use xlink:href="#b" x="2.996" y="6.488"/><use xlink:href="#1"/><use xlink:href="#2" y="4.342"/><text y="8.183" class="j">❯</text><text x="2.004" y="8.183" class="o">m</text><text x="3.006" y="8.183" class="l">icropy</text><text x="10.02" y="8.183" class="l">init</text><text x="15.03" y="8.183" class="l">NewProject</text></svg><svg x="480"><use xlink:href="#a"/><use xlink:href="#b" x="3.996" y="6.488"/><use xlink:href="#1"/><use xlink:href="#2" y="4.342"/><text y="8.183" class="j">❯</text><text x="2.004" y="8.183" class="o">mi</text><text x="4.008" y="8.183" class="l">cropy</text><text x="10.02" y="8.183" class="l">init</text><text x="15.03" y="8.183" class="l">NewProject</text></svg><svg x="560"><use xlink:href="#a"/><use xlink:href="#b" x="4.996" y="6.488"/><use xlink:href="#1"/><use xlink:href="#2" y="4.342"/><text y="8.183" class="j">❯</text><text x="2.004" y="8.183" class="o">mic</text><text x="5.01" y="8.183" class="l">ropy</text><text x="10.02" y="8.183" class="l">init</text><text x="15.03" y="8.183" class="l">NewProject</text></svg><svg x="640"><use xlink:href="#a"/><use xlink:href="#b" x="5.996" y="6.488"/><use xlink:href="#1"/><use xlink:href="#2" y="4.342"/><text y="8.183" class="j">❯</text><text x="2.004" y="8.183" class="o">micr</text><text x="6.012" y="8.183" class="l">opy</text><text x="10.02" y="8.183" class="l">init</text><text x="15.03" y="8.183" class="l">NewProject</text></svg><svg x="720"><use xlink:href="#a"/><use xlink:href="#b" x="6.996" y="6.488"/><use xlink:href="#1"/><use xlink:href="#2" y="4.342"/><text y="8.183" class="j">❯</text><text x="2.004" y="8.183" class="o">micro</text><text x="7.014" y="8.183" class="l">py</text><text x="10.02" y="8.183" class="l">init</text><text x="15.03" y="8.183" class="l">NewProject</text></svg><svg x="800"><use xlink:href="#a"/><use xlink:href="#b" x="7.996" y="6.488"/><use xlink:href="#1"/><use xlink:href="#2" y="4.342"/><text y="8.183" class="j">❯</text><text x="2.004" y="8.183" class="o">microp</text><text x="8.016" y="8.183" class="l">y</text><text x="10.02" y="8.183" class="l">init</text><text x="15.03" y="8.183" class="l">NewProject</text></svg><svg x="880"><use xlink:href="#a"/><use xlink:href="#b" x="8.996" y="6.488"/><use xlink:href="#1"/><use xlink:href="#2" y="4.342"/><use xlink:href="#4" y="6.513"/></svg><svg x="960"><use xlink:href="#a"/><use xlink:href="#b" x="9.996" y="6.488"/><use xlink:href="#1"/><use xlink:href="#2" y="4.342"/><use xlink:href="#4" y="6.513"/></svg><svg x="1040"><use xlink:href="#a"/><use xlink:href="#b" x="10.996" y="6.488"/><use xlink:href="#1"/><use xlink:href="#2" y="4.342"/><text y="8.183" class="j">❯</text><text x="2.004" y="8.183" class="k">micropy</text><text x="10.02" y="8.183" class="f">i</text><text x="11.022" y="8.183" class="l">nit</text><text x="15.03" y="8.183" class="l">NewProject</text></svg><svg x="1120"><use xlink:href="#a"/><use xlink:href="#b" x="11.996" y="6.488"/><use xlink:href="#1"/><use xlink:href="#2" y="4.342"/><text y="8.183" class="j">❯</text><text x="2.004" y="8.183" class="k">micropy</text><text x="10.02" y="8.183" class="f">in</text><text x="12.024" y="8.183" class="l">it</text><text x="15.03" y="8.183" class="l">NewProject</text></svg><svg x="1200"><use xlink:href="#a"/><use xlink:href="#b" x="12.996" y="6.488"/><use xlink:href="#1"/><use xlink:href="#2" y="4.342"/><text y="8.183" class="j">❯</text><text x="2.004" y="8.183" class="k">micropy</text><text x="10.02" y="8.183" class="f">ini</text><text x="13.026" y="8.183" class="l">t</text><text x="15.03" y="8.183" class="l">NewProject</text></svg><svg x="1280"><use xlink:href="#a"/><use xlink:href="#b" x="13.996" y="6.488"/><use xlink:href="#1"/><use xlink:href="#2" y="4.342"/><use xlink:href="#5" y="6.513"/></svg><svg x="1360"><use xlink:href="#a"/><use xlink:href="#b" x="14.996" y="6.488"/><use xlink:href="#1"/><use xlink:href="#2" y="4.342"/><use xlink:href="#5" y="6.513"/></svg><svg x="1440"><use xlink:href="#a"/><use xlink:href="#b" x="15.996" y="6.488"/><use xlink:href="#1"/><use xlink:href="#2" y="4.342"/><text y="8.183" class="j">❯</text><text x="2.004" y="8.183" class="k">micropy</text><text x="10.02" y="8.183" class="f">init</text><text x="15.03" y="8.183" class="f">N</text><text x="16.032" y="8.183" class="l">ewProject</text></svg><svg x="1520"><use xlink:href="#a"/><use xlink:href="#b" x="16.996" y="6.488"/><use xlink:href="#1"/><use xlink:href="#2" y="4.342"/><text y="8.183" class="j">❯</text><text x="2.004" y="8.183" class="k">micropy</text><text x="10.02" y="8.183" class="f">init</text><text x="15.03" y="8.183" class="f">Ne</text><text x="17.034" y="8.183" class="l">wProject</text></svg><svg x="1600"><use xlink:href="#a"/><use xlink:href="#b" x="17.996" y="6.488"/><use xlink:href="#1"/><use xlink:href="#2" y="4.342"/><text y="8.183" class="j">❯</text><text x="2.004" y="8.183" class="k">micropy</text><text x="10.02" y="8.183" class="f">init</text><text x="15.03" y="8.183" class="f">New</text><text x="18.036" y="8.183" class="l">Project</text></svg><svg x="1680"><use xlink:href="#a"/><use xlink:href="#b" x="18.996" y="6.488"/><use xlink:href="#1"/><use xlink:href="#2" y="4.342"/><text y="8.183" class="j">❯</text><text x="2.004" y="8.183" class="k">micropy</text><text x="10.02" y="8.183" class="f">init</text><text x="15.03" y="8.183" class="f">NewP</text><text x="19.038" y="8.183" class="l">roject</text></svg><svg x="1760"><use xlink:href="#a"/><use xlink:href="#b" x="19.996" y="6.488"/><use xlink:href="#1"/><use xlink:href="#2" y="4.342"/><text y="8.183" class="j">❯</text><text x="2.004" y="8.183" class="k">micropy</text><text x="10.02" y="8.183" class="f">init</text><text x="15.03" y="8.183" class="f">NewPr</text><text x="20.04" y="8.183" class="l">oject</text></svg><svg x="1840"><use xlink:href="#a"/><use xlink:href="#b" x="20.996" y="6.488"/><use xlink:href="#1"/><use xlink:href="#2" y="4.342"/><text y="8.183" class="j">❯</text><text x="2.004" y="8.183" class="k">micropy</text><text x="10.02" y="8.183" class="f">init</text><text x="15.03" y="8.183" class="f">NewPro</text><text x="21.042" y="8.183" class="l">ject</text></svg><svg x="1920"><use xlink:href="#a"/><use xlink:href="#b" x="21.996" y="6.488"/><use xlink:href="#1"/><use xlink:href="#2" y="4.342"/><text y="8.183" class="j">❯</text><text x="2.004" y="8.183" class="k">micropy</text><text x="10.02" y="8.183" class="f">init</text><text x="15.03" y="8.183" class="f">NewProj</text><text x="22.044" y="8.183" class="l">ect</text></svg><svg x="2000"><use xlink:href="#a"/><use xlink:href="#b" x="22.996" y="6.488"/><use xlink:href="#1"/><use xlink:href="#2" y="4.342"/><text y="8.183" class="j">❯</text><text x="2.004" y="8.183" class="k">micropy</text><text x="10.02" y="8.183" class="f">init</text><text x="15.03" y="8.183" class="f">NewProje</text><text x="23.046" y="8.183" class="l">ct</text></svg><svg x="2080"><use xlink:href="#a"/><use xlink:href="#b" x="23.996" y="6.488"/><use xlink:href="#1"/><use xlink:href="#2" y="4.342"/><text y="8.183" class="j">❯</text><text x="2.004" y="8.183" class="k">micropy</text><text x="10.02" y="8.183" class="f">init</text><text x="15.03" y="8.183" class="f">NewProjec</text><text x="24.048" y="8.183" class="l">t</text></svg><svg x="2160"><use xlink:href="#a"/><use xlink:href="#b" x="24.996" y="6.488"/><use xlink:href="#1"/><use xlink:href="#2" y="4.342"/><use xlink:href="#6" y="6.513"/></svg><svg x="2240"><use xlink:href="#a"/><use xlink:href="#b" x="24.996" y="6.488"/><use xlink:href="#1"/><use xlink:href="#2" y="4.342"/><use xlink:href="#6" y="6.513"/></svg><svg x="2320"><use xlink:href="#a"/><use xlink:href="#b" x="-.004" y="8.659"/><use xlink:href="#1"/><use xlink:href="#2" y="4.342"/><use xlink:href="#6" y="6.513"/></svg><svg x="2400"><use xlink:href="#a"/><use xlink:href="#b" x="-.004" y="8.659"/><use xlink:href="#1"/><use xlink:href="#2" y="4.342"/><use xlink:href="#6" y="6.513"/></svg><svg x="2480"><use xlink:href="#a"/><use xlink:href="#b" x="-.004" y="10.83"/><use xlink:href="#1"/><use xlink:href="#2" y="4.342"/><use xlink:href="#6" y="6.513"/><use xlink:href="#7" y="8.684"/></svg><svg x="2560"><use xlink:href="#a"/><use xlink:href="#b" x="-.004" y="10.83"/><use xlink:href="#1"/><use xlink:href="#2" y="4.342"/><use xlink:href="#6" y="6.513"/><use xlink:href="#7" y="8.684"/></svg><svg x="2640"><use xlink:href="#a"/><use xlink:href="#b" x="7.996" y="13.001"/><use xlink:href="#1"/><use xlink:href="#2" y="4.342"/><use xlink:href="#6" y="6.513"/><use xlink:href="#7" y="8.684"/><use xlink:href="#8" y="10.855"/><use xlink:href="#9" y="13.026"/><use xlink:href="#10" y="15.197"/><use xlink:href="#11" y="17.368"/><use xlink:href="#12" y="19.539"/><use xlink:href="#13" y="21.71"/><use xlink:href="#14" y="23.881"/><use xlink:href="#15" y="26.052"/><use xlink:href="#16" y="28.223"/></svg><svg x="2720"><use xlink:href="#a"/><use xlink:href="#b" x="7.996" y="13.001"/><use xlink:href="#1"/><use xlink:href="#2" y="4.342"/><use xlink:href="#6" y="6.513"/><use xlink:href="#7" y="8.684"/><use xlink:href="#8" y="10.855"/><use xlink:href="#9" y="13.026"/><use xlink:href="#10" y="15.197"/><use xlink:href="#11" y="17.368"/><use xlink:href="#12" y="19.539"/><use xlink:href="#13" y="21.71"/><use xlink:href="#14" y="23.881"/><use xlink:href="#15" y="26.052"/><use xlink:href="#16" y="28.223"/></svg><svg x="2800"><use xlink:href="#a"/><use xlink:href="#b" x="7.996" y="13.001"/><use xlink:href="#1"/><use xlink:href="#2" y="4.342"/><use xlink:href="#6" y="6.513"/><use xlink:href="#7" y="8.684"/><use xlink:href="#8" y="10.855"/><use xlink:href="#9" y="13.026"/><use xlink:href="#17" y="15.197"/><text x="1.002" y="19.038" class="f">»</text><text x="3.006" y="19.038" class="f">○</text><text x="5.01" y="19.038" class="f">esp8266@v1.9.4-8-ga9a3caad0</text><text x="33.066" y="19.038" class="f">on</text><text x="36.072" y="19.038" class="f">2018-05-11</text><use xlink:href="#12" y="19.539"/><use xlink:href="#13" y="21.71"/><use xlink:href="#14" y="23.881"/><use xlink:href="#15" y="26.052"/><use xlink:href="#16" y="28.223"/></svg><svg x="2880"><use xlink:href="#a"/><use xlink:href="#b" x="7.996" y="13.001"/><use xlink:href="#1"/><use xlink:href="#2" y="4.342"/><use xlink:href="#6" y="6.513"/><use xlink:href="#7" y="8.684"/><use xlink:href="#8" y="10.855"/><use xlink:href="#9" y="13.026"/><use xlink:href="#17" y="15.197"/><use xlink:href="#11" y="17.368"/><text x="1.002" y="21.209" class="f">»</text><text x="3.006" y="21.209" class="f">○</text><text x="5.01" y="21.209" class="f">esp32_LoBo@ESP32_LoBo_v3.2.24</text><text x="35.07" y="21.209" class="f">on</text><text x="38.076" y="21.209" class="f">2018-09-06</text><use xlink:href="#13" y="21.71"/><use xlink:href="#14" y="23.881"/><use xlink:href="#15" y="26.052"/><use xlink:href="#16" y="28.223"/></svg><svg x="2960"><use xlink:href="#a"/><use xlink:href="#b" x="7.996" y="13.001"/><use xlink:href="#1"/><use xlink:href="#2" y="4.342"/><use xlink:href="#6" y="6.513"/><use xlink:href="#7" y="8.684"/><use xlink:href="#8" y="10.855"/><use xlink:href="#9" y="13.026"/><use xlink:href="#17" y="15.197"/><use xlink:href="#11" y="17.368"/><use xlink:href="#12" y="19.539"/><text x="1.002" y="23.38" class="f">»</text><text x="3.006" y="23.38" class="f">○</text><text x="5.01" y="23.38" class="f">esp8266@v1.11-8-g48dcbbe60</text><text x="32.064" y="23.38" class="f">on</text><text x="35.07" y="23.38" class="f">2019-05-29</text><use xlink:href="#14" y="23.881"/><use xlink:href="#15" y="26.052"/><use xlink:href="#16" y="28.223"/></svg><svg x="3040"><use xlink:href="#a"/><use xlink:href="#b" x="7.996" y="13.001"/><use xlink:href="#1"/><use xlink:href="#2" y="4.342"/><use xlink:href="#6" y="6.513"/><use xlink:href="#7" y="8.684"/><use xlink:href="#8" y="10.855"/><use xlink:href="#9" y="13.026"/><use xlink:href="#17" y="15.197"/><use xlink:href="#11" y="17.368"/><use xlink:href="#12" y="19.539"/><text x="1.002" y="23.38" class="f">»</text><path class="f" d="M3.006 21.71h42v2.171h-42z"/><text x="3.006" y="23.38" class="a">● esp8266@v1.11-8-g48dcbbe60 on 2019-05-29</text><use xlink:href="#14" y="23.881"/><use xlink:href="#15" y="26.052"/><use xlink:href="#16" y="28.223"/></svg><svg x="3120"><use xlink:href="#a"/><use xlink:href="#b" x="-.004" y="13.001"/><use xlink:href="#1"/><use xlink:href="#2" y="4.342"/><use xlink:href="#6" y="6.513"/><use xlink:href="#7" y="8.684"/><use xlink:href="#18" y="10.855"/></svg><svg x="3200"><use xlink:href="#a"/><use xlink:href="#b" x="-.004" y="15.172"/><use xlink:href="#1"/><use xlink:href="#2" y="4.342"/><use xlink:href="#6" y="6.513"/><use xlink:href="#7" y="8.684"/><use xlink:href="#18" y="10.855"/><use xlink:href="#19" y="13.026"/></svg><svg x="3280"><use xlink:href="#a"/><use xlink:href="#b" x="-.004" y="17.343"/><use xlink:href="#1"/><use xlink:href="#2" y="4.342"/><use xlink:href="#6" y="6.513"/><use xlink:href="#7" y="8.684"/><use xlink:href="#18" y="10.855"/><use xlink:href="#19" y="13.026"/><use xlink:href="#20" y="15.197"/></svg><svg x="3360"><use xlink:href="#a"/><use xlink:href="#b" x="-.004" y="19.514"/><use xlink:href="#1"/><use xlink:href="#2" y="4.342"/><use xlink:href="#6" y="6.513"/><use xlink:href="#7" y="8.684"/><use xlink:href="#18" y="10.855"/><use xlink:href="#19" y="13.026"/><use xlink:href="#20" y="15.197"/><use xlink:href="#21" y="17.368"/></svg><svg x="3440"><use xlink:href="#a"/><use xlink:href="#b" x="-.004" y="21.685"/><use xlink:href="#1"/><use xlink:href="#2" y="4.342"/><use xlink:href="#6" y="6.513"/><use xlink:href="#7" y="8.684"/><use xlink:href="#18" y="10.855"/><use xlink:href="#19" y="13.026"/><use xlink:href="#20" y="15.197"/><use xlink:href="#21" y="17.368"/><use xlink:href="#22" y="19.539"/></svg><svg x="3520"><use xlink:href="#a"/><use xlink:href="#b" x="-.004" y="23.856"/><use xlink:href="#1"/><use xlink:href="#2" y="4.342"/><use xlink:href="#6" y="6.513"/><use xlink:href="#7" y="8.684"/><use xlink:href="#18" y="10.855"/><use xlink:href="#19" y="13.026"/><use xlink:href="#20" y="15.197"/><use xlink:href="#21" y="17.368"/><use xlink:href="#22" y="19.539"/><use xlink:href="#1" y="21.71"/></svg><svg x="3600"><use xlink:href="#a"/><use xlink:href="#b" x="-.004" y="23.856"/><use xlink:href="#1"/><use xlink:href="#2" y="4.342"/><use xlink:href="#6" y="6.513"/><use xlink:href="#7" y="8.684"/><use xlink:href="#18" y="10.855"/><use xlink:href="#19" y="13.026"/><use xlink:href="#20" y="15.197"/><use xlink:href="#21" y="17.368"/><use xlink:href="#22" y="19.539"/><use xlink:href="#1" y="21.71"/></svg><svg x="3680"><use xlink:href="#a"/><use xlink:href="#b" x="1.996" y="28.198"/><use xlink:href="#1"/><use xlink:href="#2" y="4.342"/><use xlink:href="#6" y="6.513"/><use xlink:href="#7" y="8.684"/><use xlink:href="#18" y="10.855"/><use xlink:href="#19" y="13.026"/><use xlink:href="#20" y="15.197"/><use xlink:href="#21" y="17.368"/><use xlink:href="#22" y="19.539"/><use xlink:href="#1" y="21.71"/><use xlink:href="#23" y="26.052"/><use xlink:href="#3" y="28.223"/></svg><svg x="3760"><use xlink:href="#a"/><use xlink:href="#b" x="1.996" y="28.198"/><use xlink:href="#1"/><use xlink:href="#2" y="4.342"/><use xlink:href="#6" y="6.513"/><use xlink:href="#7" y="8.684"/><use xlink:href="#18" y="10.855"/><use xlink:href="#19" y="13.026"/><use xlink:href="#20" y="15.197"/><use xlink:href="#21" y="17.368"/><use xlink:href="#22" y="19.539"/><use xlink:href="#1" y="21.71"/><use xlink:href="#23" y="26.052"/><use xlink:href="#3" y="28.223"/></svg><svg x="3840"><use xlink:href="#a"/><use xlink:href="#b" x="1.996" y="28.198"/><use xlink:href="#1"/><use xlink:href="#2" y="4.342"/><use xlink:href="#6" y="6.513"/><use xlink:href="#7" y="8.684"/><use xlink:href="#18" y="10.855"/><use xlink:href="#19" y="13.026"/><use xlink:href="#20" y="15.197"/><use xlink:href="#21" y="17.368"/><use xlink:href="#22" y="19.539"/><use xlink:href="#1" y="21.71"/><use xlink:href="#23" y="26.052"/><use xlink:href="#3" y="28.223"/></svg><svg x="3920"><use xlink:href="#a"/><use xlink:href="#b" x="2.996" y="28.198"/><use xlink:href="#1"/><use xlink:href="#2" y="4.342"/><use xlink:href="#6" y="6.513"/><use xlink:href="#7" y="8.684"/><use xlink:href="#18" y="10.855"/><use xlink:href="#19" y="13.026"/><use xlink:href="#20" y="15.197"/><use xlink:href="#21" y="17.368"/><use xlink:href="#22" y="19.539"/><use xlink:href="#1" y="21.71"/><use xlink:href="#23" y="26.052"/><use xlink:href="#24" y="28.223"/></svg><svg x="4000"><use xlink:href="#a"/><use xlink:href="#b" x="3.996" y="28.198"/><use xlink:href="#1"/><use xlink:href="#2" y="4.342"/><use xlink:href="#6" y="6.513"/><use xlink:href="#7" y="8.684"/><use xlink:href="#18" y="10.855"/><use xlink:href="#19" y="13.026"/><use xlink:href="#20" y="15.197"/><use xlink:href="#21" y="17.368"/><use xlink:href="#22" y="19.539"/><use xlink:href="#1" y="21.71"/><use xlink:href="#23" y="26.052"/><use xlink:href="#25" y="28.223"/></svg><svg x="4080"><use xlink:href="#a"/><use xlink:href="#b" x="4.996" y="28.198"/><use xlink:href="#1"/><use xlink:href="#2" y="4.342"/><use xlink:href="#6" y="6.513"/><use xlink:href="#7" y="8.684"/><use xlink:href="#18" y="10.855"/><use xlink:href="#19" y="13.026"/><use xlink:href="#20" y="15.197"/><use xlink:href="#21" y="17.368"/><use xlink:href="#22" y="19.539"/><use xlink:href="#1" y="21.71"/><use xlink:href="#23" y="26.052"/><text y="29.893" class="j">❯</text><text x="2.004" y="29.893" class="k">tee</text></svg><svg x="4160"><use xlink:href="#a"/><use xlink:href="#b" x="3.996" y="28.198"/><use xlink:href="#1"/><use xlink:href="#2" y="4.342"/><use xlink:href="#6" y="6.513"/><use xlink:href="#7" y="8.684"/><use xlink:href="#18" y="10.855"/><use xlink:href="#19" y="13.026"/><use xlink:href="#20" y="15.197"/><use xlink:href="#21" y="17.368"/><use xlink:href="#22" y="19.539"/><use xlink:href="#1" y="21.71"/><use xlink:href="#23" y="26.052"/><use xlink:href="#25" y="28.223"/></svg><svg x="4240"><use xlink:href="#a"/><use xlink:href="#b" x="2.996" y="28.198"/><use xlink:href="#1"/><use xlink:href="#2" y="4.342"/><use xlink:href="#6" y="6.513"/><use xlink:href="#7" y="8.684"/><use xlink:href="#18" y="10.855"/><use xlink:href="#19" y="13.026"/><use xlink:href="#20" y="15.197"/><use xlink:href="#21" y="17.368"/><use xlink:href="#22" y="19.539"/><use xlink:href="#1" y="21.71"/><use xlink:href="#23" y="26.052"/><use xlink:href="#24" y="28.223"/></svg><svg x="4320"><use xlink:href="#a"/><use xlink:href="#b" x="3.996" y="28.198"/><use xlink:href="#1"/><use xlink:href="#2" y="4.342"/><use xlink:href="#6" y="6.513"/><use xlink:href="#7" y="8.684"/><use xlink:href="#18" y="10.855"/><use xlink:href="#19" y="13.026"/><use xlink:href="#20" y="15.197"/><use xlink:href="#21" y="17.368"/><use xlink:href="#22" y="19.539"/><use xlink:href="#1" y="21.71"/><use xlink:href="#23" y="26.052"/><text y="29.893" class="j">❯</text><text x="2.004" y="29.893" class="k">tr</text><text x="4.008" y="29.893" class="l">ee</text><text x="7.014" y="29.893" class="l">-a</text><text x="10.02" y="29.893" class="l">-L</text><text x="13.026" y="29.893" class="l">2</text><text x="15.03" y="29.893" class="l">NewProject</text></svg><svg x="4400"><use xlink:href="#a"/><use xlink:href="#b" x="4.996" y="28.198"/><use xlink:href="#1"/><use xlink:href="#2" y="4.342"/><use xlink:href="#6" y="6.513"/><use xlink:href="#7" y="8.684"/><use xlink:href="#18" y="10.855"/><use xlink:href="#19" y="13.026"/><use xlink:href="#20" y="15.197"/><use xlink:href="#21" y="17.368"/><use xlink:href="#22" y="19.539"/><use xlink:href="#1" y="21.71"/><use xlink:href="#23" y="26.052"/><text y="29.893" class="j">❯</text><text x="2.004" y="29.893" fill="#e88388" font-weight="700">tre</text><text x="5.01" y="29.893" class="l">e</text><text x="7.014" y="29.893" class="l">-a</text><text x="10.02" y="29.893" class="l">-L</text><text x="13.026" y="29.893" class="l">2</text><text x="15.03" y="29.893" class="l">NewProject</text></svg><svg x="4480"><use xlink:href="#a"/><use xlink:href="#b" x="5.996" y="28.198"/><use xlink:href="#1"/><use xlink:href="#2" y="4.342"/><use xlink:href="#6" y="6.513"/><use xlink:href="#7" y="8.684"/><use xlink:href="#18" y="10.855"/><use xlink:href="#19" y="13.026"/><use xlink:href="#20" y="15.197"/><use xlink:href="#21" y="17.368"/><use xlink:href="#22" y="19.539"/><use xlink:href="#1" y="21.71"/><use xlink:href="#23" y="26.052"/><text y="29.893" class="j">❯</text><text x="2.004" y="29.893" class="k">tree</text><text x="7.014" y="29.893" class="l">-a</text><text x="10.02" y="29.893" class="l">-L</text><text x="13.026" y="29.893" class="l">2</text><text x="15.03" y="29.893" class="l">NewProject</text></svg><svg x="4560"><use xlink:href="#a"/><use xlink:href="#b" x="24.996" y="28.198"/><use xlink:href="#1"/><use xlink:href="#2" y="4.342"/><use xlink:href="#6" y="6.513"/><use xlink:href="#7" y="8.684"/><use xlink:href="#18" y="10.855"/><use xlink:href="#19" y="13.026"/><use xlink:href="#20" y="15.197"/><use xlink:href="#21" y="17.368"/><use xlink:href="#22" y="19.539"/><use xlink:href="#1" y="21.71"/><use xlink:href="#23" y="26.052"/><use xlink:href="#26" y="28.223"/></svg><svg x="4640"><use xlink:href="#a"/><use xlink:href="#b" x="24.996" y="28.198"/><use xlink:href="#1"/><use xlink:href="#2" y="4.342"/><use xlink:href="#6" y="6.513"/><use xlink:href="#7" y="8.684"/><use xlink:href="#18" y="10.855"/><use xlink:href="#19" y="13.026"/><use xlink:href="#20" y="15.197"/><use xlink:href="#21" y="17.368"/><use xlink:href="#22" y="19.539"/><use xlink:href="#1" y="21.71"/><use xlink:href="#23" y="26.052"/><use xlink:href="#26" y="28.223"/></svg><svg x="4720"><use xlink:href="#a"/><use xlink:href="#b" x="-.004" y="30.369"/><use xlink:href="#1"/><use xlink:href="#2" y="4.342"/><use xlink:href="#6" y="6.513"/><use xlink:href="#7" y="8.684"/><use xlink:href="#18" y="10.855"/><use xlink:href="#19" y="13.026"/><use xlink:href="#20" y="15.197"/><use xlink:href="#21" y="17.368"/><use xlink:href="#22" y="19.539"/><use xlink:href="#1" y="21.71"/><use xlink:href="#23" y="26.052"/><use xlink:href="#26" y="28.223"/></svg><svg x="4800"><use xlink:href="#a"/><use xlink:href="#b" x="-.004" y="30.369"/><use xlink:href="#1"/><use xlink:href="#2" y="4.342"/><use xlink:href="#6" y="6.513"/><use xlink:href="#7" y="8.684"/><use xlink:href="#18" y="10.855"/><use xlink:href="#19" y="13.026"/><use xlink:href="#20" y="15.197"/><use xlink:href="#21" y="17.368"/><use xlink:href="#22" y="19.539"/><use xlink:href="#1" y="21.71"/><use xlink:href="#23" y="26.052"/><use xlink:href="#26" y="28.223"/></svg><svg x="4880"><use xlink:href="#a"/><use xlink:href="#b" x="18.996" y="43.395"/><use xlink:href="#1"/><use xlink:href="#2" y="4.342"/><use xlink:href="#6" y="6.513"/><use xlink:href="#7" y="8.684"/><use xlink:href="#18" y="10.855"/><use xlink:href="#19" y="13.026"/><use xlink:href="#20" y="15.197"/><use xlink:href="#21" y="17.368"/><use xlink:href="#22" y="19.539"/><use xlink:href="#1" y="21.71"/><use xlink:href="#23" y="26.052"/><use xlink:href="#26" y="28.223"/><use xlink:href="#27" y="30.394"/><use xlink:href="#28" y="32.565"/><use xlink:href="#29" y="34.736"/><use xlink:href="#30" y="36.907"/><use xlink:href="#31" y="39.078"/><use xlink:href="#32" y="41.249"/><use xlink:href="#33" y="43.42"/></svg><svg x="4960"><use xlink:href="#a"/><use xlink:href="#b" x="-.004" y="45.566"/><use xlink:href="#7"/><use xlink:href="#18" y="2.171"/><use xlink:href="#19" y="4.342"/><use xlink:href="#20" y="6.513"/><use xlink:href="#21" y="8.684"/><use xlink:href="#22" y="10.855"/><use xlink:href="#1" y="13.026"/><use xlink:href="#23" y="17.368"/><use xlink:href="#26" y="19.539"/><use xlink:href="#27" y="21.71"/><use xlink:href="#28" y="23.881"/><use xlink:href="#29" y="26.052"/><use xlink:href="#30" y="28.223"/><use xlink:href="#31" y="30.394"/><use xlink:href="#32" y="32.565"/><use xlink:href="#33" y="34.736"/><use xlink:href="#34" y="36.907"/><use xlink:href="#35" y="39.078"/><use xlink:href="#36" y="43.42"/></svg><svg x="5040"><use xlink:href="#a"/><use xlink:href="#b" x="-.004" y="45.566"/><use xlink:href="#18"/><use xlink:href="#19" y="2.171"/><use xlink:href="#20" y="4.342"/><use xlink:href="#21" y="6.513"/><use xlink:href="#22" y="8.684"/><use xlink:href="#1" y="10.855"/><use xlink:href="#23" y="15.197"/><use xlink:href="#26" y="17.368"/><use xlink:href="#27" y="19.539"/><use xlink:href="#28" y="21.71"/><use xlink:href="#29" y="23.881"/><use xlink:href="#30" y="26.052"/><use xlink:href="#31" y="28.223"/><use xlink:href="#32" y="30.394"/><use xlink:href="#33" y="32.565"/><use xlink:href="#34" y="34.736"/><use xlink:href="#35" y="36.907"/><use xlink:href="#36" y="41.249"/><use xlink:href="#1" y="43.42"/></svg><svg x="5120"><use xlink:href="#a"/><use xlink:href="#b" x="-.004" y="45.566"/><use xlink:href="#18"/><use xlink:href="#19" y="2.171"/><use xlink:href="#20" y="4.342"/><use xlink:href="#21" y="6.513"/><use xlink:href="#22" y="8.684"/><use xlink:href="#1" y="10.855"/><use xlink:href="#23" y="15.197"/><use xlink:href="#26" y="17.368"/><use xlink:href="#27" y="19.539"/><use xlink:href="#28" y="21.71"/><use xlink:href="#29" y="23.881"/><use xlink:href="#30" y="26.052"/><use xlink:href="#31" y="28.223"/><use xlink:href="#32" y="30.394"/><use xlink:href="#33" y="32.565"/><use xlink:href="#34" y="34.736"/><use xlink:href="#35" y="36.907"/><use xlink:href="#36" y="41.249"/><use xlink:href="#1" y="43.42"/></svg><svg x="5200"><use xlink:href="#a"/><use xlink:href="#b" x="1.996" y="45.566"/><use xlink:href="#20"/><use xlink:href="#21" y="2.171"/><use xlink:href="#22" y="4.342"/><use xlink:href="#1" y="6.513"/><use xlink:href="#23" y="10.855"/><use xlink:href="#26" y="13.026"/><use xlink:href="#27" y="15.197"/><use xlink:href="#28" y="17.368"/><use xlink:href="#29" y="19.539"/><use xlink:href="#30" y="21.71"/><use xlink:href="#31" y="23.881"/><use xlink:href="#32" y="26.052"/><use xlink:href="#33" y="28.223"/><use xlink:href="#34" y="30.394"/><use xlink:href="#35" y="32.565"/><use xlink:href="#36" y="36.907"/><use xlink:href="#1" y="39.078"/><use xlink:href="#2" y="43.42"/><use xlink:href="#3" y="45.591"/></svg><svg x="5280"><use xlink:href="#a"/><use xlink:href="#b" x="1.996" y="45.566"/><use xlink:href="#20"/><use xlink:href="#21" y="2.171"/><use xlink:href="#22" y="4.342"/><use xlink:href="#1" y="6.513"/><use xlink:href="#23" y="10.855"/><use xlink:href="#26" y="13.026"/><use xlink:href="#27" y="15.197"/><use xlink:href="#28" y="17.368"/><use xlink:href="#29" y="19.539"/><use xlink:href="#30" y="21.71"/><use xlink:href="#31" y="23.881"/><use xlink:href="#32" y="26.052"/><use xlink:href="#33" y="28.223"/><use xlink:href="#34" y="30.394"/><use xlink:href="#35" y="32.565"/><use xlink:href="#36" y="36.907"/><use xlink:href="#1" y="39.078"/><use xlink:href="#2" y="43.42"/><use xlink:href="#3" y="45.591"/></svg><svg x="5360"><use xlink:href="#a"/><use xlink:href="#b" x="1.996" y="45.566"/><use xlink:href="#20"/><use xlink:href="#21" y="2.171"/><use xlink:href="#22" y="4.342"/><use xlink:href="#1" y="6.513"/><use xlink:href="#23" y="10.855"/><use xlink:href="#26" y="13.026"/><use xlink:href="#27" y="15.197"/><use xlink:href="#28" y="17.368"/><use xlink:href="#29" y="19.539"/><use xlink:href="#30" y="21.71"/><use xlink:href="#31" y="23.881"/><use xlink:href="#32" y="26.052"/><use xlink:href="#33" y="28.223"/><use xlink:href="#34" y="30.394"/><use xlink:href="#35" y="32.565"/><use xlink:href="#36" y="36.907"/><use xlink:href="#1" y="39.078"/><use xlink:href="#2" y="43.42"/><use xlink:href="#3" y="45.591"/></svg><svg x="5440"><use xlink:href="#a"/><use xlink:href="#b" x="-.004" y="45.566"/><use xlink:href="#21"/><use xlink:href="#22" y="2.171"/><use xlink:href="#1" y="4.342"/><use xlink:href="#23" y="8.684"/><use xlink:href="#26" y="10.855"/><use xlink:href="#27" y="13.026"/><use xlink:href="#28" y="15.197"/><use xlink:href="#29" y="17.368"/><use xlink:href="#30" y="19.539"/><use xlink:href="#31" y="21.71"/><use xlink:href="#32" y="23.881"/><use xlink:href="#33" y="26.052"/><use xlink:href="#34" y="28.223"/><use xlink:href="#35" y="30.394"/><use xlink:href="#36" y="34.736"/><use xlink:href="#1" y="36.907"/><use xlink:href="#2" y="41.249"/><use xlink:href="#3" y="43.42"/></svg></svg></g></g></svg></svg>